<svg width="100" height="100" viewBox="0 0 100 100" fill="none" xmlns="http://www.w3.org/2000/svg">
    <rect x="2.5" y="20" width="42.5" height="60" fill="#3178c6" />

    <path stroke="#ccc" stroke-linecap="round" stroke-linejoin="round" stroke-width="5"
        d="M 2.5 20 h 42.5 v 60 h -42.5" />
    <path fill="#ccc"
          d="M 45 49 h 37 l 1 1 l -1 1 h -37 z" />

    <g stroke="#fff" stroke-linecap="round" stroke-width="3" transform="translate(9.5,36)">
        <path d="M 5.92 26.88 L 0 26.88 L 0 0.48 L 5.92 0.48 Q 9.283 0.48 11.654 1.594 A 9.165 9.165 0 0 1 12.62 2.12 Q 15.24 3.76 16.5 6.72 A 15.335 15.335 0 0 1 17.519 10.354 A 20.867 20.867 0 0 1 17.76 13.6 A 20.803 20.803 0 0 1 17.483 17.073 A 15.594 15.594 0 0 1 16.5 20.52 Q 15.24 23.52 12.62 25.2 A 10.037 10.037 0 0 1 9.53 26.486 Q 7.896 26.88 5.92 26.88 Z M 1.28 1.6 L 1.28 25.76 L 5.76 25.76 Q 9.52 25.76 11.86 24.16 Q 14.2 22.56 15.3 19.82 A 15.084 15.084 0 0 0 16.239 16.156 A 19.568 19.568 0 0 0 16.4 13.6 Q 16.4 10.12 15.3 7.4 Q 14.2 4.68 11.86 3.14 A 8.735 8.735 0 0 0 9.213 1.997 Q 8.061 1.701 6.706 1.626 A 17.071 17.071 0 0 0 5.76 1.6 L 1.28 1.6 Z" />
        <path d="M 25.28 26.88 L 24 26.88 L 24 0.48 L 25.28 0.48 L 25.28 26.88 Z" />
    </g>

    <g stroke="#777" stroke-linecap="round" stroke-width="3" transform="translate(22.5,36)">
        <path d="M 49.36 3.12 L 48.56 3.92 Q 47.48 2.64 45.96 1.92 A 7.57 7.57 0 0 0 42.975 1.207 A 8.81 8.81 0 0 0 42.64 1.2 A 10.17 10.17 0 0 0 39.979 1.534 A 8.157 8.157 0 0 0 37.42 2.72 A 9.217 9.217 0 0 0 34.713 5.708 A 11.789 11.789 0 0 0 34.06 7.02 A 14.198 14.198 0 0 0 33.157 10.158 Q 32.906 11.609 32.882 13.257 A 24.032 24.032 0 0 0 32.88 13.6 Q 32.88 17.25 33.95 19.996 A 12.983 12.983 0 0 0 34.04 20.22 A 11.16 11.16 0 0 0 35.424 22.691 A 9.014 9.014 0 0 0 37.36 24.6 A 8.238 8.238 0 0 0 41.475 26.113 A 10.499 10.499 0 0 0 42.48 26.16 A 9.844 9.844 0 0 0 44.573 25.946 A 7.891 7.891 0 0 0 46.26 25.38 A 8.588 8.588 0 0 0 48.071 24.218 A 11.724 11.724 0 0 0 49.4 22.92 L 50.16 23.6 Q 48.68 25.32 46.86 26.34 A 7.64 7.64 0 0 1 44.695 27.136 Q 43.638 27.36 42.4 27.36 A 10.452 10.452 0 0 1 39.002 26.822 A 9.337 9.337 0 0 1 36.7 25.66 A 10.525 10.525 0 0 1 33.629 22.323 A 13.365 13.365 0 0 1 32.88 20.86 A 15.647 15.647 0 0 1 31.79 17.095 A 21.57 21.57 0 0 1 31.52 13.6 A 21.479 21.479 0 0 1 31.727 10.548 A 16.472 16.472 0 0 1 32.3 7.98 A 13.579 13.579 0 0 1 33.473 5.258 A 11.445 11.445 0 0 1 34.56 3.68 Q 36.04 1.88 38.08 0.94 A 10.291 10.291 0 0 1 41.401 0.06 A 12.612 12.612 0 0 1 42.64 0 A 9.295 9.295 0 0 1 44.875 0.259 A 7.634 7.634 0 0 1 46.62 0.92 A 9.871 9.871 0 0 1 48.089 1.862 A 7.325 7.325 0 0 1 49.36 3.12 Z" />
        <path d="M 71.84 3.12 L 71.04 3.92 Q 69.96 2.64 68.44 1.92 A 7.57 7.57 0 0 0 65.455 1.207 A 8.81 8.81 0 0 0 65.12 1.2 A 10.17 10.17 0 0 0 62.459 1.534 A 8.157 8.157 0 0 0 59.9 2.72 A 9.217 9.217 0 0 0 57.193 5.708 A 11.789 11.789 0 0 0 56.54 7.02 A 14.198 14.198 0 0 0 55.637 10.158 Q 55.386 11.609 55.362 13.257 A 24.032 24.032 0 0 0 55.36 13.6 Q 55.36 17.25 56.43 19.996 A 12.983 12.983 0 0 0 56.52 20.22 A 11.16 11.16 0 0 0 57.904 22.691 A 9.014 9.014 0 0 0 59.84 24.6 A 8.238 8.238 0 0 0 63.955 26.113 A 10.499 10.499 0 0 0 64.96 26.16 A 9.844 9.844 0 0 0 67.053 25.946 A 7.891 7.891 0 0 0 68.74 25.38 A 8.588 8.588 0 0 0 70.551 24.218 A 11.724 11.724 0 0 0 71.88 22.92 L 72.64 23.6 Q 71.16 25.32 69.34 26.34 A 7.64 7.64 0 0 1 67.175 27.136 Q 66.118 27.36 64.88 27.36 A 10.452 10.452 0 0 1 61.482 26.822 A 9.337 9.337 0 0 1 59.18 25.66 A 10.525 10.525 0 0 1 56.109 22.323 A 13.365 13.365 0 0 1 55.36 20.86 A 15.647 15.647 0 0 1 54.27 17.095 A 21.57 21.57 0 0 1 54 13.6 A 21.479 21.479 0 0 1 54.207 10.548 A 16.472 16.472 0 0 1 54.78 7.98 A 13.579 13.579 0 0 1 55.953 5.258 A 11.445 11.445 0 0 1 57.04 3.68 Q 58.52 1.88 60.56 0.94 A 10.291 10.291 0 0 1 63.881 0.06 A 12.612 12.612 0 0 1 65.12 0 A 9.295 9.295 0 0 1 67.355 0.259 A 7.634 7.634 0 0 1 69.1 0.92 A 9.871 9.871 0 0 1 70.569 1.862 A 7.325 7.325 0 0 1 71.84 3.12 Z" />
    </g>
</svg>
